<svg width="145" height="36" viewBox="0 0 145 36" fill="none" xmlns="http://www.w3.org/2000/svg">
<mask id="path-1-outside-1_50160_568" maskUnits="userSpaceOnUse" x="0.876465" y="0" width="145" height="36" fill="black">
<rect fill="white" x="0.876465" width="145" height="36"/>
<path d="M1.87646 7.81818V34H5.63499V15.0412H5.87789L13.5995 33.9616H16.7188L24.4404 15.054H24.6833V34H28.4418V7.81818H23.6478L15.3125 28.1705H15.0057L6.6705 7.81818H1.87646Z"/>
<path d="M42.3413 34.3963C46.624 34.3963 49.6538 32.2869 50.5231 29.0909L46.9052 28.4389C46.2149 30.2926 44.553 31.2386 42.3797 31.2386C39.1069 31.2386 36.9081 29.1165 36.8058 25.3324H50.766V23.9773C50.766 16.8821 46.5217 14.108 42.0728 14.108C36.6013 14.108 32.9961 18.2756 32.9961 24.3097C32.9961 30.4077 36.5501 34.3963 42.3413 34.3963ZM36.8186 22.4688C36.972 19.6818 38.9919 17.2656 42.0984 17.2656C45.0643 17.2656 47.0075 19.4645 47.0203 22.4688H36.8186Z"/>
<path d="M69.7216 19.1577C68.929 16.1023 66.5384 14.108 62.2941 14.108C57.858 14.108 54.7131 16.4474 54.7131 19.9247C54.7131 22.7116 56.4006 24.5653 60.0824 25.3835L63.4063 26.1122C65.2983 26.5341 66.1804 27.3778 66.1804 28.6051C66.1804 30.1264 64.5569 31.3153 62.0512 31.3153C59.7628 31.3153 58.2927 30.331 57.8324 28.4006L54.1378 28.9631C54.777 32.4403 57.6662 34.3963 62.0768 34.3963C66.8196 34.3963 70.1052 31.8778 70.1052 28.3239C70.1052 25.5497 68.341 23.8366 64.7358 23.0057L61.6165 22.2898C59.456 21.7784 58.5228 21.0497 58.5356 19.7202C58.5228 18.2116 60.1591 17.1378 62.3324 17.1378C64.7103 17.1378 65.8097 18.4545 66.2571 19.7713L69.7216 19.1577Z"/>
<path d="M83.4741 14.3636H79.4471V9.65909H75.6247V14.3636H72.7483V17.4318H75.6247V29.027C75.6119 32.5938 78.3349 34.3196 81.352 34.2557C82.5665 34.2429 83.3846 34.0128 83.8321 33.8466L83.1417 30.6889C82.8861 30.7401 82.413 30.8551 81.7994 30.8551C80.5594 30.8551 79.4471 30.446 79.4471 28.2344V17.4318H83.4741V14.3636Z"/>
<path d="M95.7628 34.3963C101.298 34.3963 104.916 30.3437 104.916 24.2713C104.916 18.1605 101.298 14.108 95.7628 14.108C90.2273 14.108 86.6094 18.1605 86.6094 24.2713C86.6094 30.3437 90.2273 34.3963 95.7628 34.3963ZM95.7756 31.1875C92.1577 31.1875 90.4702 28.0298 90.4702 24.2585C90.4702 20.5 92.1577 17.304 95.7756 17.304C99.3679 17.304 101.055 20.5 101.055 24.2585C101.055 28.0298 99.3679 31.1875 95.7756 31.1875Z"/>
<path d="M109.057 10H110.114V6.59091H112.023C112.099 6.59091 112.172 6.59091 112.244 6.58665L114.085 10H115.313L113.34 6.39489C114.452 6.01562 114.972 5.10795 114.972 3.94886C114.972 2.40625 114.051 1.27273 112.006 1.27273H109.057V10ZM110.114 5.63636V2.21023H111.972C113.386 2.21023 113.932 2.90057 113.932 3.94886C113.932 4.99716 113.386 5.63636 111.989 5.63636H110.114Z"/>
<path d="M120.721 7.32386C120.721 8.55114 119.784 9.11364 119.034 9.11364C118.199 9.11364 117.602 8.5 117.602 7.54545V3.45455H116.596V7.61364C116.596 9.28409 117.483 10.0852 118.71 10.0852C119.699 10.0852 120.346 9.55682 120.653 8.89205H120.721V10H121.727V3.45455H120.721V7.32386Z"/>
<path d="M128.205 4.92045C127.89 3.99148 127.183 3.36932 125.887 3.36932C124.506 3.36932 123.484 4.15341 123.484 5.26136C123.484 6.16477 124.021 6.76989 125.222 7.05114L126.313 7.30682C126.974 7.46023 127.285 7.77557 127.285 8.22727C127.285 8.78977 126.688 9.25 125.751 9.25C124.928 9.25 124.413 8.89631 124.234 8.19318L123.279 8.43182C123.514 9.54403 124.43 10.1364 125.768 10.1364C127.289 10.1364 128.325 9.3054 128.325 8.17614C128.325 7.2642 127.754 6.68892 126.586 6.40341L125.614 6.16477C124.839 5.97301 124.489 5.71307 124.489 5.21023C124.489 4.64773 125.086 4.23864 125.887 4.23864C126.765 4.23864 127.127 4.72443 127.302 5.17614L128.205 4.92045Z"/>
<path d="M134.475 4.92045C134.159 3.99148 133.452 3.36932 132.157 3.36932C130.776 3.36932 129.753 4.15341 129.753 5.26136C129.753 6.16477 130.29 6.76989 131.492 7.05114L132.583 7.30682C133.243 7.46023 133.554 7.77557 133.554 8.22727C133.554 8.78977 132.958 9.25 132.02 9.25C131.198 9.25 130.682 8.89631 130.503 8.19318L129.549 8.43182C129.783 9.54403 130.699 10.1364 132.037 10.1364C133.559 10.1364 134.594 9.3054 134.594 8.17614C134.594 7.2642 134.023 6.68892 132.856 6.40341L131.884 6.16477C131.108 5.97301 130.759 5.71307 130.759 5.21023C130.759 4.64773 131.356 4.23864 132.157 4.23864C133.034 4.23864 133.397 4.72443 133.571 5.17614L134.475 4.92045Z"/>
<path d="M136.108 10H137.114V3.45455H136.108V10ZM136.619 2.36364C137.011 2.36364 137.335 2.05682 137.335 1.68182C137.335 1.30682 137.011 1 136.619 1C136.227 1 135.903 1.30682 135.903 1.68182C135.903 2.05682 136.227 2.36364 136.619 2.36364Z"/>
<path d="M140.882 10.1534C142.024 10.1534 142.62 9.53977 142.825 9.11364H142.876V10H143.882V5.6875C143.882 3.60795 142.297 3.36932 141.461 3.36932C140.473 3.36932 139.348 3.71023 138.836 4.90341L139.791 5.24432C140.012 4.76705 140.537 4.25568 141.495 4.25568C142.42 4.25568 142.876 4.74574 142.876 5.58523V5.61932C142.876 6.10511 142.382 6.0625 141.189 6.21591C139.974 6.37358 138.649 6.64204 138.649 8.14205C138.649 9.42045 139.637 10.1534 140.882 10.1534ZM141.035 9.25C140.234 9.25 139.655 8.89205 139.655 8.19318C139.655 7.42614 140.353 7.1875 141.137 7.08523C141.564 7.03409 142.706 6.91477 142.876 6.71023V7.63068C142.876 8.44886 142.228 9.25 141.035 9.25Z"/>
</mask>
<path d="M1.87646 7.81818V34H5.63499V15.0412H5.87789L13.5995 33.9616H16.7188L24.4404 15.054H24.6833V34H28.4418V7.81818H23.6478L15.3125 28.1705H15.0057L6.6705 7.81818H1.87646Z" fill="black"/>
<path d="M42.3413 34.3963C46.624 34.3963 49.6538 32.2869 50.5231 29.0909L46.9052 28.4389C46.2149 30.2926 44.553 31.2386 42.3797 31.2386C39.1069 31.2386 36.9081 29.1165 36.8058 25.3324H50.766V23.9773C50.766 16.8821 46.5217 14.108 42.0728 14.108C36.6013 14.108 32.9961 18.2756 32.9961 24.3097C32.9961 30.4077 36.5501 34.3963 42.3413 34.3963ZM36.8186 22.4688C36.972 19.6818 38.9919 17.2656 42.0984 17.2656C45.0643 17.2656 47.0075 19.4645 47.0203 22.4688H36.8186Z" fill="black"/>
<path d="M69.7216 19.1577C68.929 16.1023 66.5384 14.108 62.2941 14.108C57.858 14.108 54.7131 16.4474 54.7131 19.9247C54.7131 22.7116 56.4006 24.5653 60.0824 25.3835L63.4063 26.1122C65.2983 26.5341 66.1804 27.3778 66.1804 28.6051C66.1804 30.1264 64.5569 31.3153 62.0512 31.3153C59.7628 31.3153 58.2927 30.331 57.8324 28.4006L54.1378 28.9631C54.777 32.4403 57.6662 34.3963 62.0768 34.3963C66.8196 34.3963 70.1052 31.8778 70.1052 28.3239C70.1052 25.5497 68.341 23.8366 64.7358 23.0057L61.6165 22.2898C59.456 21.7784 58.5228 21.0497 58.5356 19.7202C58.5228 18.2116 60.1591 17.1378 62.3324 17.1378C64.7103 17.1378 65.8097 18.4545 66.2571 19.7713L69.7216 19.1577Z" fill="black"/>
<path d="M83.4741 14.3636H79.4471V9.65909H75.6247V14.3636H72.7483V17.4318H75.6247V29.027C75.6119 32.5938 78.3349 34.3196 81.352 34.2557C82.5665 34.2429 83.3846 34.0128 83.8321 33.8466L83.1417 30.6889C82.8861 30.7401 82.413 30.8551 81.7994 30.8551C80.5594 30.8551 79.4471 30.446 79.4471 28.2344V17.4318H83.4741V14.3636Z" fill="black"/>
<path d="M95.7628 34.3963C101.298 34.3963 104.916 30.3437 104.916 24.2713C104.916 18.1605 101.298 14.108 95.7628 14.108C90.2273 14.108 86.6094 18.1605 86.6094 24.2713C86.6094 30.3437 90.2273 34.3963 95.7628 34.3963ZM95.7756 31.1875C92.1577 31.1875 90.4702 28.0298 90.4702 24.2585C90.4702 20.5 92.1577 17.304 95.7756 17.304C99.3679 17.304 101.055 20.5 101.055 24.2585C101.055 28.0298 99.3679 31.1875 95.7756 31.1875Z" fill="black"/>
<path d="M109.057 10H110.114V6.59091H112.023C112.099 6.59091 112.172 6.59091 112.244 6.58665L114.085 10H115.313L113.34 6.39489C114.452 6.01562 114.972 5.10795 114.972 3.94886C114.972 2.40625 114.051 1.27273 112.006 1.27273H109.057V10ZM110.114 5.63636V2.21023H111.972C113.386 2.21023 113.932 2.90057 113.932 3.94886C113.932 4.99716 113.386 5.63636 111.989 5.63636H110.114Z" fill="black"/>
<path d="M120.721 7.32386C120.721 8.55114 119.784 9.11364 119.034 9.11364C118.199 9.11364 117.602 8.5 117.602 7.54545V3.45455H116.596V7.61364C116.596 9.28409 117.483 10.0852 118.71 10.0852C119.699 10.0852 120.346 9.55682 120.653 8.89205H120.721V10H121.727V3.45455H120.721V7.32386Z" fill="black"/>
<path d="M128.205 4.92045C127.89 3.99148 127.183 3.36932 125.887 3.36932C124.506 3.36932 123.484 4.15341 123.484 5.26136C123.484 6.16477 124.021 6.76989 125.222 7.05114L126.313 7.30682C126.974 7.46023 127.285 7.77557 127.285 8.22727C127.285 8.78977 126.688 9.25 125.751 9.25C124.928 9.25 124.413 8.89631 124.234 8.19318L123.279 8.43182C123.514 9.54403 124.43 10.1364 125.768 10.1364C127.289 10.1364 128.325 9.3054 128.325 8.17614C128.325 7.2642 127.754 6.68892 126.586 6.40341L125.614 6.16477C124.839 5.97301 124.489 5.71307 124.489 5.21023C124.489 4.64773 125.086 4.23864 125.887 4.23864C126.765 4.23864 127.127 4.72443 127.302 5.17614L128.205 4.92045Z" fill="black"/>
<path d="M134.475 4.92045C134.159 3.99148 133.452 3.36932 132.157 3.36932C130.776 3.36932 129.753 4.15341 129.753 5.26136C129.753 6.16477 130.29 6.76989 131.492 7.05114L132.583 7.30682C133.243 7.46023 133.554 7.77557 133.554 8.22727C133.554 8.78977 132.958 9.25 132.02 9.25C131.198 9.25 130.682 8.89631 130.503 8.19318L129.549 8.43182C129.783 9.54403 130.699 10.1364 132.037 10.1364C133.559 10.1364 134.594 9.3054 134.594 8.17614C134.594 7.2642 134.023 6.68892 132.856 6.40341L131.884 6.16477C131.108 5.97301 130.759 5.71307 130.759 5.21023C130.759 4.64773 131.356 4.23864 132.157 4.23864C133.034 4.23864 133.397 4.72443 133.571 5.17614L134.475 4.92045Z" fill="black"/>
<path d="M136.108 10H137.114V3.45455H136.108V10ZM136.619 2.36364C137.011 2.36364 137.335 2.05682 137.335 1.68182C137.335 1.30682 137.011 1 136.619 1C136.227 1 135.903 1.30682 135.903 1.68182C135.903 2.05682 136.227 2.36364 136.619 2.36364Z" fill="black"/>
<path d="M140.882 10.1534C142.024 10.1534 142.62 9.53977 142.825 9.11364H142.876V10H143.882V5.6875C143.882 3.60795 142.297 3.36932 141.461 3.36932C140.473 3.36932 139.348 3.71023 138.836 4.90341L139.791 5.24432C140.012 4.76705 140.537 4.25568 141.495 4.25568C142.42 4.25568 142.876 4.74574 142.876 5.58523V5.61932C142.876 6.10511 142.382 6.0625 141.189 6.21591C139.974 6.37358 138.649 6.64204 138.649 8.14205C138.649 9.42045 139.637 10.1534 140.882 10.1534ZM141.035 9.25C140.234 9.25 139.655 8.89205 139.655 8.19318C139.655 7.42614 140.353 7.1875 141.137 7.08523C141.564 7.03409 142.706 6.91477 142.876 6.71023V7.63068C142.876 8.44886 142.228 9.25 141.035 9.25Z" fill="black"/>
<path d="M1.87646 7.81818V34H5.63499V15.0412H5.87789L13.5995 33.9616H16.7188L24.4404 15.054H24.6833V34H28.4418V7.81818H23.6478L15.3125 28.1705H15.0057L6.6705 7.81818H1.87646Z" stroke="black" stroke-width="2" mask="url(#path-1-outside-1_50160_568)"/>
<path d="M42.3413 34.3963C46.624 34.3963 49.6538 32.2869 50.5231 29.0909L46.9052 28.4389C46.2149 30.2926 44.553 31.2386 42.3797 31.2386C39.1069 31.2386 36.9081 29.1165 36.8058 25.3324H50.766V23.9773C50.766 16.8821 46.5217 14.108 42.0728 14.108C36.6013 14.108 32.9961 18.2756 32.9961 24.3097C32.9961 30.4077 36.5501 34.3963 42.3413 34.3963ZM36.8186 22.4688C36.972 19.6818 38.9919 17.2656 42.0984 17.2656C45.0643 17.2656 47.0075 19.4645 47.0203 22.4688H36.8186Z" stroke="black" stroke-width="2" mask="url(#path-1-outside-1_50160_568)"/>
<path d="M69.7216 19.1577C68.929 16.1023 66.5384 14.108 62.2941 14.108C57.858 14.108 54.7131 16.4474 54.7131 19.9247C54.7131 22.7116 56.4006 24.5653 60.0824 25.3835L63.4063 26.1122C65.2983 26.5341 66.1804 27.3778 66.1804 28.6051C66.1804 30.1264 64.5569 31.3153 62.0512 31.3153C59.7628 31.3153 58.2927 30.331 57.8324 28.4006L54.1378 28.9631C54.777 32.4403 57.6662 34.3963 62.0768 34.3963C66.8196 34.3963 70.1052 31.8778 70.1052 28.3239C70.1052 25.5497 68.341 23.8366 64.7358 23.0057L61.6165 22.2898C59.456 21.7784 58.5228 21.0497 58.5356 19.7202C58.5228 18.2116 60.1591 17.1378 62.3324 17.1378C64.7103 17.1378 65.8097 18.4545 66.2571 19.7713L69.7216 19.1577Z" stroke="black" stroke-width="2" mask="url(#path-1-outside-1_50160_568)"/>
<path d="M83.4741 14.3636H79.4471V9.65909H75.6247V14.3636H72.7483V17.4318H75.6247V29.027C75.6119 32.5938 78.3349 34.3196 81.352 34.2557C82.5665 34.2429 83.3846 34.0128 83.8321 33.8466L83.1417 30.6889C82.8861 30.7401 82.413 30.8551 81.7994 30.8551C80.5594 30.8551 79.4471 30.446 79.4471 28.2344V17.4318H83.4741V14.3636Z" stroke="black" stroke-width="2" mask="url(#path-1-outside-1_50160_568)"/>
<path d="M95.7628 34.3963C101.298 34.3963 104.916 30.3437 104.916 24.2713C104.916 18.1605 101.298 14.108 95.7628 14.108C90.2273 14.108 86.6094 18.1605 86.6094 24.2713C86.6094 30.3437 90.2273 34.3963 95.7628 34.3963ZM95.7756 31.1875C92.1577 31.1875 90.4702 28.0298 90.4702 24.2585C90.4702 20.5 92.1577 17.304 95.7756 17.304C99.3679 17.304 101.055 20.5 101.055 24.2585C101.055 28.0298 99.3679 31.1875 95.7756 31.1875Z" stroke="black" stroke-width="2" mask="url(#path-1-outside-1_50160_568)"/>
<path d="M109.057 10H110.114V6.59091H112.023C112.099 6.59091 112.172 6.59091 112.244 6.58665L114.085 10H115.313L113.34 6.39489C114.452 6.01562 114.972 5.10795 114.972 3.94886C114.972 2.40625 114.051 1.27273 112.006 1.27273H109.057V10ZM110.114 5.63636V2.21023H111.972C113.386 2.21023 113.932 2.90057 113.932 3.94886C113.932 4.99716 113.386 5.63636 111.989 5.63636H110.114Z" stroke="black" stroke-width="2" mask="url(#path-1-outside-1_50160_568)"/>
<path d="M120.721 7.32386C120.721 8.55114 119.784 9.11364 119.034 9.11364C118.199 9.11364 117.602 8.5 117.602 7.54545V3.45455H116.596V7.61364C116.596 9.28409 117.483 10.0852 118.71 10.0852C119.699 10.0852 120.346 9.55682 120.653 8.89205H120.721V10H121.727V3.45455H120.721V7.32386Z" stroke="black" stroke-width="2" mask="url(#path-1-outside-1_50160_568)"/>
<path d="M128.205 4.92045C127.89 3.99148 127.183 3.36932 125.887 3.36932C124.506 3.36932 123.484 4.15341 123.484 5.26136C123.484 6.16477 124.021 6.76989 125.222 7.05114L126.313 7.30682C126.974 7.46023 127.285 7.77557 127.285 8.22727C127.285 8.78977 126.688 9.25 125.751 9.25C124.928 9.25 124.413 8.89631 124.234 8.19318L123.279 8.43182C123.514 9.54403 124.43 10.1364 125.768 10.1364C127.289 10.1364 128.325 9.3054 128.325 8.17614C128.325 7.2642 127.754 6.68892 126.586 6.40341L125.614 6.16477C124.839 5.97301 124.489 5.71307 124.489 5.21023C124.489 4.64773 125.086 4.23864 125.887 4.23864C126.765 4.23864 127.127 4.72443 127.302 5.17614L128.205 4.92045Z" stroke="black" stroke-width="2" mask="url(#path-1-outside-1_50160_568)"/>
<path d="M134.475 4.92045C134.159 3.99148 133.452 3.36932 132.157 3.36932C130.776 3.36932 129.753 4.15341 129.753 5.26136C129.753 6.16477 130.29 6.76989 131.492 7.05114L132.583 7.30682C133.243 7.46023 133.554 7.77557 133.554 8.22727C133.554 8.78977 132.958 9.25 132.02 9.25C131.198 9.25 130.682 8.89631 130.503 8.19318L129.549 8.43182C129.783 9.54403 130.699 10.1364 132.037 10.1364C133.559 10.1364 134.594 9.3054 134.594 8.17614C134.594 7.2642 134.023 6.68892 132.856 6.40341L131.884 6.16477C131.108 5.97301 130.759 5.71307 130.759 5.21023C130.759 4.64773 131.356 4.23864 132.157 4.23864C133.034 4.23864 133.397 4.72443 133.571 5.17614L134.475 4.92045Z" stroke="black" stroke-width="2" mask="url(#path-1-outside-1_50160_568)"/>
<path d="M136.108 10H137.114V3.45455H136.108V10ZM136.619 2.36364C137.011 2.36364 137.335 2.05682 137.335 1.68182C137.335 1.30682 137.011 1 136.619 1C136.227 1 135.903 1.30682 135.903 1.68182C135.903 2.05682 136.227 2.36364 136.619 2.36364Z" stroke="black" stroke-width="2" mask="url(#path-1-outside-1_50160_568)"/>
<path d="M140.882 10.1534C142.024 10.1534 142.62 9.53977 142.825 9.11364H142.876V10H143.882V5.6875C143.882 3.60795 142.297 3.36932 141.461 3.36932C140.473 3.36932 139.348 3.71023 138.836 4.90341L139.791 5.24432C140.012 4.76705 140.537 4.25568 141.495 4.25568C142.42 4.25568 142.876 4.74574 142.876 5.58523V5.61932C142.876 6.10511 142.382 6.0625 141.189 6.21591C139.974 6.37358 138.649 6.64204 138.649 8.14205C138.649 9.42045 139.637 10.1534 140.882 10.1534ZM141.035 9.25C140.234 9.25 139.655 8.89205 139.655 8.19318C139.655 7.42614 140.353 7.1875 141.137 7.08523C141.564 7.03409 142.706 6.91477 142.876 6.71023V7.63068C142.876 8.44886 142.228 9.25 141.035 9.25Z" stroke="black" stroke-width="2" mask="url(#path-1-outside-1_50160_568)"/>
</svg>
